<svg xmlns="http://www.w3.org/2000/svg" viewBox="0 0 548.6 535.43"><defs><style>.cls-1{fill:#eee8db;}.cls-2{fill:#f5e7da;}.cls-3{fill:#467797;stroke:#467797;}.cls-10,.cls-3,.cls-5,.cls-7,.cls-8,.cls-9{stroke-miterlimit:10;}.cls-4,.cls-5,.cls-7,.cls-8,.cls-9{fill:#c0d8ea;}.cls-5{stroke:#fdeeed;}.cls-6{fill:#231f20;}.cls-7{stroke:#231f20;}.cls-8{stroke:#c0d8e9;stroke-width:1.01px;}.cls-9{stroke:#c0d8ea;}.cls-10{fill:none;stroke:#ede7db;stroke-width:7px;}.cls-11{font-size:21px;fill:#ede7db;font-family:adelia;}</style></defs><g id="Layer_2" data-name="Layer 2"><g id="Layer_1-2" data-name="Layer 1"><ellipse class="cls-1" cx="274.4" cy="267.72" rx="270.61" ry="262.85"/><path class="cls-2" d="M175.89,484.29c.58,0,1.62-.2,1.91-.8s-.24-.85-.78-.85-1.63.19-1.92.79.24.86.79.86Z"/><polyline class="cls-3" points="224.02 64.87 214.25 63.12 199.4 63.12 184.26 63.12 163.94 63.12 147.25 63.12 133.72 63.12 119.46 46.16 142.59 33.84 156.51 27.93 168.82 23.21 185.72 17.82 190.32 17.09 199.61 27.98 209.21 39.24 217.05 48.43 224.16 56.77 233.76 68.02 249.05 85.96"/><polygon class="cls-3" points="214.25 158.85 220.5 157.84 224.26 156.97 227.41 155.91 229.86 155.13 240.37 167.56 236.69 164.76 234.33 163.25 230.13 161.34 225.4 159.94 220.32 159.24 217.08 158.98 214.25 158.85"/><polygon class="cls-4" points="173.99 169.57 173.99 233.39 183.49 233.39 191.72 233.39 199.15 233.39 207.1 230.8 212.94 222.57 215.25 211.95 215.25 196.05 215.25 182.78 212.94 175.62 208.17 169.57 199.41 167.56 173.99 169.57"/><polygon class="cls-5" points="173.99 84.31 173.99 148.13 190.9 148.13 195.6 148.13 200.17 147.19 205.16 144.48 209.73 140.49 214.25 134.78 214.25 129.64 214.87 123.8 214.87 118.94 214.25 112.81 214.87 109.24 214.25 105.75 214.87 100.4 211.87 95.12 208.34 90.56 205.02 87.41 198.46 84.31 173.99 84.31"/><path class="cls-6" d="M133.73,254.58V63.12h80.52q16.38,0,28.2,12.63a42.45,42.45,0,0,1,11.82,30v10.47q0,18.89-10,29.48t-30,13.15q20,0,30,12.89a47.18,47.18,0,0,1,10,29.74V212a42.41,42.41,0,0,1-11.82,30q-11.8,12.65-28.2,12.64ZM174,148.13h20a19,19,0,0,0,14.34-6.26,21,21,0,0,0,5.91-14.93V105.75a21.3,21.3,0,0,0-5.91-15.19A19,19,0,0,0,194,84.31H174Zm0,85.26h20A18.84,18.84,0,0,0,208.34,227,21.43,21.43,0,0,0,214.25,212V190.76q0-21.19-20.25-21.19H174Z"/><polygon class="cls-7" points="395.09 424.92 396.47 435.99 387.73 445.8 371.95 449 351.91 447.93 337.84 441.96 331.77 425.76 332.94 399.32 331.77 325.77 334.64 308.5 342.38 298.69 361.08 294.43 376.64 294.43 386.24 297.84 393.06 305.94 395.93 318.07 413.91 337.97 433.08 359.18 471.3 401.48 491.92 424.29 479.06 439.38 465.71 453.64 453.65 464.88 415.1 424.92 395.09 424.92"/><polygon class="cls-8" points="414.1 317.71 409.6 299.21 401.99 283.66 509.76 394.59 499.69 411.73 414.1 317.71"/><polygon class="cls-3" points="395.93 318.07 491.92 424.29 495.89 417.83 500.69 410.73 415.1 318.72 395.93 318.07"/><polyline class="cls-3" points="450.7 467.43 440.51 475.68 429.55 483.69 418.66 490.87 407.58 497.44 398.19 502.49 384.63 508.98 376.6 512.39 361.14 518.13 311.34 459.73 318.76 464.28 329.1 467.55 342.36 467.55 359.32 467.55 375.08 467.55 388.21 465.61 401.2 457.92 409.68 445.99 415.1 424.92 453.65 464.88"/><path class="cls-6" d="M415.1,424.92q-2.42,42.63-40,42.63H334.82q-16.4,0-28.32-12.51a42.06,42.06,0,0,1-11.94-30.12V318.72a42.64,42.64,0,0,1,11.7-30q11.69-12.64,28.56-12.64h40.26q37.85,0,40,42.63h-20q-2.4-21.44-20-21.44H354.83a18.73,18.73,0,0,0-14.1,6.25,21.32,21.32,0,0,0-5.91,15.19v106.2A21.42,21.42,0,0,0,340.73,440a18.55,18.55,0,0,0,14.1,6.38h20.25q17.85,0,20-21.44Z"/><path class="cls-6" d="M153,288.77c2.53-2.35,4.73-5,7.21-7.4a26.31,26.31,0,0,1,8.66-5.72c7-2.76,14.83-3,22.32-3.19s15.17-.22,22.68-1.51a92,92,0,0,0,19.17-5.45c11.16-4.56,21.72-11.37,29.42-20.75a54.4,54.4,0,0,0,4.69-6.67,30.68,30.68,0,0,0,3.47-7.43c.8-3.07-2.28-4.3-4.83-4.37a11.24,11.24,0,0,0-8.41,3.55c-4.44,4.79-5.77,11.71-6,18-.2,6.85.8,13.71.06,20.55a36,36,0,0,1-.93,5.06l3.51-.77a9.52,9.52,0,0,1,1-5.81,11.18,11.18,0,0,1,1.92-2.62c.18-.19.42-.36.59-.56l.32-.28-1.14.3a12.66,12.66,0,0,1,.85,1.09c1.39,3-1.13,6.52-4.19,6.93a3.23,3.23,0,0,0-1.92.81c-.28.42,0,.67.48.68a28.28,28.28,0,0,0,16.76-5.14c4.66-3.34,7.79-8.13,10-13.34l-3.51.76a5.85,5.85,0,0,0,1.33,3.8c1.23,1.28,3.2,1.36,4.83,1.08a9.8,9.8,0,0,0,4.95-2.35c1.45-1.35,2.21-3.26,3.65-4.63l-3.38.57a415.2,415.2,0,0,1,2.94,42.14,25.47,25.47,0,0,1-1.12,9.31,10,10,0,0,1-2,3.6c-1.05,1.07-2.18.82-3.47.2-6-2.85-1.79-11.32.36-15.47a83.42,83.42,0,0,1,11.06-15.59q5.92-6.95,12.51-13.26a207,207,0,0,1,29.74-23.64c11.42-7.51,23.9-14.12,37.7-15.61.69-.08,1.92-.23,2.35-.87s-.36-.73-.86-.67c-13.46,1.45-25.86,6.94-37.29,14A208.69,208.69,0,0,0,305.88,263,186.69,186.69,0,0,0,292,277.4c-4.44,5.13-8.77,10.52-11.95,16.55-2.3,4.35-6.69,13.05-.69,16.35a8.91,8.91,0,0,0,8.18.06c2.82-1.38,4.28-4.4,5-7.33.87-3.64.65-7.46.54-11.16q-.18-6.4-.55-12.8-.76-13.06-2.31-26c-.11-1-3,.25-3.37.57a15.89,15.89,0,0,0-2.17,2.8c-.6.89-1.5,2.33-2.66,2.56a2.71,2.71,0,0,1-2.55-1.61,7,7,0,0,1-.63-2.78c-.06-.92-3.25.14-3.51.76a30.24,30.24,0,0,1-8,11.55,19.9,19.9,0,0,1-13.06,4.81l-1.44,1.49a11.11,11.11,0,0,0,7.43-3.88c1.36-1.8,1.87-4.28.45-6.2-.88-1.2-2.39-1.13-3.7-.74a8.42,8.42,0,0,0-4,3,10.73,10.73,0,0,0-2.45,8.29c.12.87,3.32-.05,3.51-.77,3.27-12.46-2-26.12,3.36-38.14a21.94,21.94,0,0,1,2.29-4c.79-1.08,2-2.51,3.34-2.85a4.32,4.32,0,0,1,3.23.73c1.39,1,1,2.5.42,3.88a47.47,47.47,0,0,1-8.2,13.36C251,254.57,241,261,230.38,265.13a82.57,82.57,0,0,1-18,4.72c-7.41,1.08-14.9.9-22.36,1.13-7.8.24-15.84,1-23.12,4a31.2,31.2,0,0,0-9.25,6c-2.72,2.54-5.08,5.44-7.8,8-.61.56.52.68.86.67a3.86,3.86,0,0,0,2.35-.87Z"/><path class="cls-9" d="M133.73,253.58,35.26,136.52a266.19,266.19,0,0,1,84.2-91.36l14.27,17Z"/><path id="circle" class="cls-10" d="M106.86,54.53a183.31,183.31,0,0,1,26.87-16.47c8.45-4.26,16.16-7.41,22.78-10.13q3.18-1.3,6.23-2.48c5.48-2.09,10.67-3.88,15.58-5.42,4.27-1.34,8.33-2.5,12.18-3.53,7.05-1.87,13.37-3.29,19-4.52,13.84-3.07,34.44-7.52,61.9-8.3a258.32,258.32,0,0,1,47.85,2.55,240.92,240.92,0,0,1,29.27,6.41,283.78,283.78,0,0,1,31.35,10.82c14.92,6.15,46.23,19.38,78.49,48.5a268.86,268.86,0,0,1,50.4,62.53c8.72,14.81,26.74,46.1,33.82,91.24,1.41,9,8.11,55-8.29,111.67a272.08,272.08,0,0,1-47.86,93.16,264.87,264.87,0,0,1-35.7,36.87q-5.11,4.35-10.19,8.25c-5.65,4.35-11.24,8.3-16.68,11.88a274.22,274.22,0,0,1-51.65,26.59q-5.55,2.15-11,4c-71.75,24.13-132.92,10.58-161.24,4.31-38.17-8.45-60.69-21.67-67-25.52-19.29-11.76-32.37-24.45-44.66-36.37-11.69-11.34-28-27.17-43.39-50.41C16.34,367.06,8,324.16,5.29,301.67a240.92,240.92,0,0,1-1.5-41.17c.84-17.32,3.32-31.87,5.33-43.7,1.06-6.27,1.55-9.41,2.45-13.81,1.19-5.86,5.44-25.92,13.07-43.93,1.89-4.46,4-8.91,4-8.91,2.13-4.45,4.34-8.64,6.59-12.63,9.59-17,20-30,28.8-41A236.25,236.25,0,0,1,90.4,68.11C98.41,60.83,105,55.91,106.86,54.53Z"/><text class="cls-11" transform="translate(148.43 79.97) rotate(90) scale(2.24 1)">ikinis</text><text class="cls-11" transform="translate(311.35 294.43) rotate(90) scale(1.7 1)">arleigh</text></g></g></svg>